<?xml version="1.0" encoding="UTF-8" standalone="no"?>
<svg width="34px" height="34px" viewBox="0 0 34 34" version="1.1" xmlns="http://www.w3.org/2000/svg" xmlns:xlink="http://www.w3.org/1999/xlink" xmlns:sketch="http://www.bohemiancoding.com/sketch/ns">
    <!-- Generator: Sketch 3.0.4 (8053) - http://www.bohemiancoding.com/sketch -->
    <title>Imported Layers</title>
    <desc>Created with Sketch.</desc>
    <defs></defs>
    <g id="Page-1" stroke="none" stroke-width="1" fill="none" fill-rule="evenodd" sketch:type="MSPage">
        <g id="Home" sketch:type="MSArtboardGroup" transform="translate(-728.000000, -683.000000)">
            <g id="Imported-Layers" sketch:type="MSLayerGroup" transform="translate(728.000000, 683.000000)">
                <path d="M14.0855625,1.31590625 C14.031375,1.28615625 13.9755937,1.260125 13.9203437,1.230375 C13.8645625,1.24259375 13.80825,1.25321875 13.753,1.264375 L14.0855625,1.31590625" id="Fill-1" fill="#FFFFFF" sketch:type="MSShapeGroup"></path>
                <path d="M32.47425,19.83475 C32.4854062,19.7763125 32.493375,19.7162813 32.5045312,19.6578438 C32.47425,19.6041875 32.4482188,19.55 32.4174062,19.4974063 L32.47425,19.83475" id="Fill-2" fill="#FFFFFF" sketch:type="MSShapeGroup"></path>
                <path d="M32.5045312,19.6578437 C32.493375,19.7162812 32.4854063,19.7763125 32.47425,19.83475 L32.4174062,19.4974062 C32.4482188,19.55 32.47425,19.6041875 32.5045312,19.6578437 C32.6766563,18.714875 32.7675,17.7506562 32.7675,16.7864375 C32.7675,14.647625 32.348875,12.5730937 31.52225,10.6202187 C30.7243125,8.73375 29.5826563,7.040125 28.1270313,5.5855625 C26.673,4.13046875 24.9783125,2.9888125 23.0929063,2.190875 C21.1400312,1.36478125 19.0655,0.94615625 16.9272188,0.94615625 C15.9194375,0.94615625 14.9105937,1.04125 13.9277813,1.22984375 C13.9256563,1.22984375 13.923,1.22984375 13.9203437,1.230375 C13.9755938,1.260125 14.031375,1.28615625 14.0855625,1.31590625 L13.753,1.264375 C13.80825,1.25321875 13.8645625,1.24259375 13.9203437,1.230375 C12.5725625,0.51425 11.0569062,0.13121875 9.5231875,0.13121875 C7.018875,0.13121875 4.66278125,1.10659375 2.89159375,2.8783125 C1.1209375,4.6495 0.14609375,7.00453125 0.14609375,9.509375 C0.14609375,11.1036562 0.55515625,12.671375 1.32546875,14.0563437 C1.3355625,13.9984375 1.3419375,13.9405312 1.35309375,13.8836875 L1.41046875,14.2151875 C1.38071875,14.163125 1.3546875,14.1089375 1.32546875,14.0563437 C1.16875,14.953625 1.08640625,15.8705625 1.08640625,16.7864375 C1.08640625,18.9241875 1.50609375,20.9987187 2.33271875,22.952125 C3.12959375,24.8396562 4.2723125,26.53275 5.7258125,27.9867812 C7.18090625,29.4413437 8.874,30.5845937 10.7615313,31.3804062 C12.7144062,32.208625 14.7894688,32.62725 16.9272188,32.62725 C17.8579688,32.62725 18.791375,32.5427812 19.7019375,32.38075 C19.6482813,32.351 19.5940937,32.3244375 19.5399062,32.2930937 L19.8783125,32.3520625 C19.819875,32.3632187 19.7609063,32.3706562 19.7019375,32.38075 C21.1049688,33.1744375 22.692875,33.5967812 24.3147812,33.5967812 C26.819625,33.5967812 29.1730625,32.6219375 30.94425,30.8502187 C32.7159687,29.0800937 33.6908125,26.7250625 33.6908125,24.2202187 C33.6908125,22.6200937 33.2790938,21.0475937 32.5045312,19.6578437" id="Fill-3" fill="#FFFFFF" sketch:type="MSShapeGroup"></path>
                <path d="M19.5399062,32.2930937 C19.5940937,32.3244375 19.6482812,32.351 19.7019375,32.38075 C19.7609063,32.3706562 19.819875,32.3632187 19.8783125,32.3520625 L19.5399062,32.2930937" id="Fill-4" fill="#FFFFFF" sketch:type="MSShapeGroup"></path>
                <path d="M16.9904375,26.4870625 C11.3629062,26.4870625 8.8453125,23.7208438 8.8453125,21.6468437 C8.8453125,20.58275 9.6305,19.8384687 10.7131875,19.8384687 C13.1208125,19.8384687 12.4976563,23.296375 16.9904375,23.296375 C19.2902187,23.296375 20.5609688,22.0474063 20.5609688,20.7686875 C20.5609688,19.9999687 20.1816563,19.148375 18.6670625,18.7754375 L13.6621562,17.524875 C9.6305,16.5144375 8.89896875,14.33525 8.89896875,12.28675 C8.89896875,8.03303125 12.9035313,6.43609375 16.6647812,6.43609375 C20.1290625,6.43609375 24.21225,8.35071875 24.21225,10.9028437 C24.21225,11.9961562 23.2655625,12.6315313 22.1844688,12.6315313 C20.1290625,12.6315313 20.5073125,9.78721875 16.3678125,9.78721875 C14.3124062,9.78721875 13.1744687,10.7174375 13.1744687,12.04875 C13.1744687,13.3774062 14.7974375,13.8013438 16.2057812,14.12275 L19.9107187,14.945125 C23.9689375,15.8487812 24.9985,18.2181562 24.9985,20.4499375 C24.9985,23.90625 22.3449062,26.4870625 16.9904375,26.4870625" id="Fill-5" fill="#31B4FA" sketch:type="MSShapeGroup"></path>
            </g>
        </g>
    </g>
</svg>