<?xml version="1.0" encoding="UTF-8" standalone="no"?>
<svg width="946px" height="408px" viewBox="0 0 946 408" version="1.1" xmlns="http://www.w3.org/2000/svg" xmlns:xlink="http://www.w3.org/1999/xlink" xmlns:sketch="http://www.bohemiancoding.com/sketch/ns">
    <!-- Generator: Sketch 3.0.4 (8053) - http://www.bohemiancoding.com/sketch -->
    <title>Landscape</title>
    <desc>Created with Sketch.</desc>
    <defs></defs>
    <g id="Page-1" stroke="none" stroke-width="1" fill="none" fill-rule="evenodd" sketch:type="MSPage">
        <g id="Landscape" sketch:type="MSArtboardGroup" transform="translate(-33.000000, -249.000000)" stroke="#FFFFFF">
            <path d="M26,304 C26,304 114,249 242,301 C370,353 450,426 656,316 C862,206 1157,278 1157,278" id="Path-7" opacity="0.01" sketch:type="MSShapeGroup"></path>
            <path d="M26,314 C26,314 114,259 242,311 C370,363 450,436 656,326 C862,216 1157,288 1157,288" id="Path-21" opacity="0.02" sketch:type="MSShapeGroup"></path>
            <path d="M26,324 C26,324 114,269 242,321 C370,373 450,446 656,336 C862,226 1157,298 1157,298" id="Path-22" opacity="0.03" sketch:type="MSShapeGroup"></path>
            <path d="M26,334 C26,334 114,279 242,331 C370,383 450,456 656,346 C862,236 1157,308 1157,308" id="Path-23" opacity="0.04" sketch:type="MSShapeGroup"></path>
            <path d="M26,344 C26,344 114,289 242,341 C370,393 450,466 656,356 C862,246 1157,318 1157,318" id="Path-24" opacity="0.05" sketch:type="MSShapeGroup"></path>
            <path d="M26,354 C26,354 114,299 242,351 C370,403 450,476 656,366 C862,256 1157,328 1157,328" id="Path-25" opacity="0.06" sketch:type="MSShapeGroup"></path>
            <path d="M26,364 C26,364 114,309 242,361 C370,413 450,486 656,376 C862,266 1157,338 1157,338" id="Path-26" opacity="0.07" sketch:type="MSShapeGroup"></path>
            <path d="M26,374 C26,374 114,319 242,371 C370,423 450,496 656,386 C862,276 1157,348 1157,348" id="Path-27" opacity="0.08" sketch:type="MSShapeGroup"></path>
            <path d="M26,384 C26,384 114,329 242,381 C370,433 450,506 656,396 C862,286 1157,358 1157,358" id="Path-28" opacity="0.09" sketch:type="MSShapeGroup"></path>
            <path d="M26,394 C26,394 114,339 242,391 C370,443 450,516 656,406 C862,296 1157,368 1157,368" id="Path-29" opacity="0.1" sketch:type="MSShapeGroup"></path>
            <path d="M26,404 C26,404 114,349 242,401 C370,453 450,526 656,416 C862,306 1157,378 1157,378" id="Path-30" opacity="0.11" sketch:type="MSShapeGroup"></path>
            <path d="M26,414 C26,414 114,359 242,411 C370,463 450,536 656,426 C862,316 1157,388 1157,388" id="Path-31" opacity="0.12" sketch:type="MSShapeGroup"></path>
            <path d="M26,424 C26,424 114,369 242,421 C370,473 450,546 656,436 C862,326 1157,398 1157,398" id="Path-32" opacity="0.13" sketch:type="MSShapeGroup"></path>
            <path d="M26,434 C26,434 114,379 242,431 C370,483 450,556 656,446 C862,336 1157,408 1157,408" id="Path-33" opacity="0.14" sketch:type="MSShapeGroup"></path>
            <path d="M26,444 C26,444 114,389 242,441 C370,493 450,566 656,456 C862,346 1157,418 1157,418" id="Path-34" opacity="0.15" sketch:type="MSShapeGroup"></path>
            <path d="M26,454 C26,454 114,399 242,451 C370,503 450,576 656,466 C862,356 1157,428 1157,428" id="Path-35" opacity="0.16" sketch:type="MSShapeGroup"></path>
            <path d="M26,464 C26,464 114,409 242,461 C370,513 450,586 656,476 C862,366 1157,438 1157,438" id="Path-36" opacity="0.17" sketch:type="MSShapeGroup"></path>
            <path d="M26,474 C26,474 114,419 242,471 C370,523 450,596 656,486 C862,376 1157,448 1157,448" id="Path-37" opacity="0.18" sketch:type="MSShapeGroup"></path>
            <path d="M26,484 C26,484 114,429 242,481 C370,533 450,606 656,496 C862,386 1157,458 1157,458" id="Path-38" opacity="0.19" sketch:type="MSShapeGroup"></path>
            <path d="M26,494 C26,494 114,439 242,491 C370,543 450,616 656,506 C862,396 1157,468 1157,468" id="Path-39" opacity="0.200000018" sketch:type="MSShapeGroup"></path>
            <path d="M26,504 C26,504 114,449 242,501 C370,553 450,626 656,516 C862,406 1157,478 1157,478" id="Path-40" opacity="0.200000018" sketch:type="MSShapeGroup"></path>
            <path d="M26,514 C26,514 114,459 242,511 C370,563 450,636 656,526 C862,416 1157,488 1157,488" id="Path-41" opacity="0.200000018" sketch:type="MSShapeGroup"></path>
            <path d="M26,524 C26,524 114,469 242,521 C370,573 450,646 656,536 C862,426 1157,498 1157,498" id="Path-42" opacity="0.200000018" sketch:type="MSShapeGroup"></path>
            <path d="M26,534 C26,534 114,479 242,531 C370,583 450,656 656,546 C862,436 1157,508 1157,508" id="Path-43" opacity="0.200000018" sketch:type="MSShapeGroup"></path>
            <path d="M26,544 C26,544 114,489 242,541 C370,593 450,666 656,556 C862,446 1157,518 1157,518" id="Path-44" opacity="0.200000018" sketch:type="MSShapeGroup"></path>
            <path d="M26,554 C26,554 114,499 242,551 C370,603 450,676 656,566 C862,456 1157,528 1157,528" id="Path-45" opacity="0.200000018" sketch:type="MSShapeGroup"></path>
            <path d="M26,564 C26,564 114,509 242,561 C370,613 450,686 656,576 C862,466 1157,538 1157,538" id="Path-46" opacity="0.200000018" sketch:type="MSShapeGroup"></path>
            <path d="M26,574 C26,574 114,519 242,571 C370,623 450,696 656,586 C862,476 1157,548 1157,548" id="Path-47" opacity="0.200000018" sketch:type="MSShapeGroup"></path>
        </g>
    </g>
</svg>